<mxfile host="app.diagrams.net" modified="2023-03-30T09:09:54.317Z" agent="Mozilla/5.0 (Windows NT 10.0; Win64; x64) AppleWebKit/537.36 (KHTML, like Gecko) Chrome/111.0.0.0 Safari/537.36" etag="DpKcBzjS-9Fx3DsOsHot" version="21.1.1" type="device">
  <diagram name="페이지-1" id="FIctYwfBap3exJkp4LkO">
    <mxGraphModel dx="3088" dy="788" grid="1" gridSize="10" guides="1" tooltips="1" connect="1" arrows="1" fold="1" page="1" pageScale="1" pageWidth="827" pageHeight="1169" math="0" shadow="0">
      <root>
        <mxCell id="0" />
        <mxCell id="1" parent="0" />
        <mxCell id="zks5ml6HuDEgTcpe3jTh-74" value="Stage1_Scene" style="swimlane;whiteSpace=wrap;html=1;" parent="1" vertex="1">
          <mxGeometry x="-90" y="60" width="1640" height="1700" as="geometry" />
        </mxCell>
        <mxCell id="zks5ml6HuDEgTcpe3jTh-78" value="" style="rounded=0;whiteSpace=wrap;html=1;fontSize=14;fillColor=none;dashed=1;strokeWidth=3;" parent="zks5ml6HuDEgTcpe3jTh-74" vertex="1">
          <mxGeometry x="10" y="40" width="1510" height="770" as="geometry" />
        </mxCell>
        <mxCell id="zks5ml6HuDEgTcpe3jTh-5" value="BackGround" style="swimlane;whiteSpace=wrap;html=1;" parent="zks5ml6HuDEgTcpe3jTh-74" vertex="1">
          <mxGeometry x="54" y="910" width="370" height="200" as="geometry" />
        </mxCell>
        <mxCell id="zks5ml6HuDEgTcpe3jTh-54" value="&lt;ul style=&quot;font-size: 19px;&quot;&gt;&lt;li&gt;Game_Scene에서 배경을 담당&lt;/li&gt;&lt;li&gt;화면은 일정 지점을 넘어가게되면&amp;nbsp; 다시 그리게 구성(서커스 찰리 배경화면 참고)&lt;/li&gt;&lt;/ul&gt;" style="text;strokeColor=none;fillColor=none;html=1;whiteSpace=wrap;verticalAlign=middle;overflow=hidden;" parent="zks5ml6HuDEgTcpe3jTh-5" vertex="1">
          <mxGeometry y="25" width="370" height="175" as="geometry" />
        </mxCell>
        <mxCell id="zks5ml6HuDEgTcpe3jTh-8" value="&lt;ul style=&quot;font-size: 19px;&quot;&gt;&lt;li&gt;이동 : 좌,우 이동가능&lt;/li&gt;&lt;li&gt;점프 : 위로 점프가능&amp;nbsp;&lt;/li&gt;&lt;li&gt;(위에서 컨트롤 가능) (더블점프 X)&lt;/li&gt;&lt;li&gt;공격 : (순수가상함수로 작성)&lt;/li&gt;&lt;li&gt;죽음 : HP 0 체크후 죽음 처리&lt;/li&gt;&lt;li&gt;충돌 체크 :&amp;nbsp;&lt;/li&gt;&lt;li&gt;FSM을 Charater에 구성&lt;/li&gt;&lt;/ul&gt;" style="text;strokeColor=none;fillColor=none;html=1;whiteSpace=wrap;verticalAlign=middle;overflow=hidden;" parent="zks5ml6HuDEgTcpe3jTh-74" vertex="1">
          <mxGeometry x="120" y="72" width="370" height="176" as="geometry" />
        </mxCell>
        <mxCell id="zks5ml6HuDEgTcpe3jTh-9" value="" style="endArrow=block;html=1;rounded=0;fontSize=19;edgeStyle=elbowEdgeStyle;elbow=vertical;endFill=1;strokeWidth=2;" parent="zks5ml6HuDEgTcpe3jTh-74" edge="1">
          <mxGeometry width="50" height="50" relative="1" as="geometry">
            <mxPoint x="160" y="320" as="sourcePoint" />
            <mxPoint x="290" y="260" as="targetPoint" />
          </mxGeometry>
        </mxCell>
        <mxCell id="zks5ml6HuDEgTcpe3jTh-10" value="RockMan(Player)" style="swimlane;whiteSpace=wrap;html=1;" parent="zks5ml6HuDEgTcpe3jTh-74" vertex="1">
          <mxGeometry x="30" y="310" width="440" height="370" as="geometry" />
        </mxCell>
        <mxCell id="zks5ml6HuDEgTcpe3jTh-11" value="&lt;ul style=&quot;font-size: 15px;&quot;&gt;&lt;li style=&quot;&quot;&gt;대쉬 : 플레이어가 보고 있는 방향으로 빠른이동가능&amp;nbsp;&lt;/li&gt;&lt;li style=&quot;&quot;&gt;원거리 공격,&amp;nbsp;&lt;/li&gt;&lt;li style=&quot;&quot;&gt;화면에 총알 5발이 최대,&lt;/li&gt;&lt;li style=&quot;&quot;&gt;&lt;span style=&quot;text-align: center;&quot;&gt;&amp;nbsp;화면에서 사라져야만 총알을 다시 공격 가능&lt;/span&gt;&lt;br&gt;&lt;/li&gt;&lt;li style=&quot;&quot;&gt;&lt;span style=&quot;text-align: center;&quot;&gt;플레이어도 FSM으로 구성할것&lt;br style=&quot;border-color: var(--border-color);&quot;&gt;행동 우선순위에 맞춰서 구성&amp;nbsp;&lt;br style=&quot;border-color: var(--border-color);&quot;&gt;&lt;span style=&quot;&quot;&gt;이유 :&lt;/span&gt;&lt;br style=&quot;border-color: var(--border-color);&quot;&gt;&lt;span style=&quot;&quot;&gt;공격 동작 (공격모드)중에 피격이 되면&amp;nbsp;&lt;/span&gt;&lt;/span&gt;&lt;/li&gt;&lt;li style=&quot;&quot;&gt;&lt;span style=&quot;text-align: center;&quot;&gt;&lt;span style=&quot;&quot;&gt;피격 모드로 전환(피격모드)후 함수 리턴 후&lt;/span&gt;&lt;/span&gt;&lt;/li&gt;&lt;li style=&quot;&quot;&gt;&lt;span style=&quot;text-align: center;&quot;&gt;&lt;span style=&quot;&quot;&gt;&amp;nbsp;대기상태(평상시)로 돌아오게 구성이 되어야한다.&lt;/span&gt;&lt;/span&gt;&lt;/li&gt;&lt;li style=&quot;&quot;&gt;&lt;span style=&quot;text-align: center;&quot;&gt;&lt;span style=&quot;&quot;&gt;그 모든 행동이 FSM을 통해 자동으로 구현되게해야함&lt;/span&gt;&lt;br&gt;&lt;/span&gt;&lt;/li&gt;&lt;/ul&gt;" style="text;strokeColor=none;fillColor=none;html=1;whiteSpace=wrap;verticalAlign=middle;overflow=hidden;" parent="zks5ml6HuDEgTcpe3jTh-10" vertex="1">
          <mxGeometry y="25" width="440" height="345" as="geometry" />
        </mxCell>
        <mxCell id="zks5ml6HuDEgTcpe3jTh-13" value="Tower_Cannon" style="swimlane;whiteSpace=wrap;html=1;" parent="zks5ml6HuDEgTcpe3jTh-74" vertex="1">
          <mxGeometry x="1050" y="565" width="270" height="205" as="geometry" />
        </mxCell>
        <mxCell id="zks5ml6HuDEgTcpe3jTh-14" value="&lt;br&gt;&lt;span style=&quot;color: rgb(0, 0, 0); font-family: Helvetica; font-size: 19px; font-style: normal; font-variant-ligatures: normal; font-variant-caps: normal; font-weight: 400; letter-spacing: normal; orphans: 2; text-align: center; text-indent: 0px; text-transform: none; widows: 2; word-spacing: 0px; -webkit-text-stroke-width: 0px; background-color: rgb(251, 251, 251); text-decoration-thickness: initial; text-decoration-style: initial; text-decoration-color: initial; float: none; display: inline !important;&quot;&gt;움직임X , &lt;br&gt;왼쪽방향으로만 원거리 공격, &lt;br&gt;화면에 최대 1발, &lt;br&gt;화면에서 사라지면 다시 공격&lt;/span&gt;" style="text;strokeColor=none;fillColor=none;html=1;whiteSpace=wrap;verticalAlign=middle;overflow=hidden;" parent="zks5ml6HuDEgTcpe3jTh-13" vertex="1">
          <mxGeometry y="25" width="250" height="175" as="geometry" />
        </mxCell>
        <mxCell id="zks5ml6HuDEgTcpe3jTh-15" value="" style="endArrow=block;html=1;rounded=0;fontSize=19;edgeStyle=elbowEdgeStyle;elbow=vertical;endFill=1;strokeWidth=2;exitX=0.5;exitY=0;exitDx=0;exitDy=0;" parent="zks5ml6HuDEgTcpe3jTh-74" source="zks5ml6HuDEgTcpe3jTh-20" edge="1">
          <mxGeometry width="50" height="50" relative="1" as="geometry">
            <mxPoint x="590" y="310" as="sourcePoint" />
            <mxPoint x="290" y="260" as="targetPoint" />
            <Array as="points">
              <mxPoint x="370" y="290" />
            </Array>
          </mxGeometry>
        </mxCell>
        <mxCell id="zks5ml6HuDEgTcpe3jTh-16" value="Metol" style="swimlane;whiteSpace=wrap;html=1;" parent="zks5ml6HuDEgTcpe3jTh-74" vertex="1">
          <mxGeometry x="640" y="560" width="330" height="195" as="geometry" />
        </mxCell>
        <mxCell id="zks5ml6HuDEgTcpe3jTh-17" value="&lt;ul style=&quot;font-size: 19px;&quot;&gt;&lt;li&gt;&amp;nbsp;좌,우로만 움직임,&lt;br style=&quot;border-color: var(--border-color); text-align: center;&quot;&gt;&lt;span style=&quot;text-align: center;&quot;&gt;맵 끝이나, 절벽 끝에 도달할경우 방향 전환 후 이동,&amp;nbsp;&lt;/span&gt;&lt;br&gt;&lt;/li&gt;&lt;/ul&gt;" style="text;strokeColor=none;fillColor=none;html=1;whiteSpace=wrap;verticalAlign=middle;overflow=hidden;" parent="zks5ml6HuDEgTcpe3jTh-16" vertex="1">
          <mxGeometry y="25" width="330" height="165" as="geometry" />
        </mxCell>
        <mxCell id="zks5ml6HuDEgTcpe3jTh-20" value="Enemy" style="swimlane;whiteSpace=wrap;html=1;" parent="zks5ml6HuDEgTcpe3jTh-74" vertex="1">
          <mxGeometry x="770" y="320" width="400" height="141" as="geometry" />
        </mxCell>
        <mxCell id="zks5ml6HuDEgTcpe3jTh-21" value="&lt;ul style=&quot;&quot;&gt;&lt;li style=&quot;&quot;&gt;&lt;font style=&quot;font-size: 16px;&quot;&gt;아이템 드랍(확률)&lt;/font&gt;&lt;/li&gt;&lt;li style=&quot;&quot;&gt;&lt;font style=&quot;font-size: 16px;&quot;&gt;Player와 충돌체크 시 true인경우 Player의 Hp가 감소, Enemy는 HP는 유지&lt;br style=&quot;border-color: var(--border-color); font-size: 19px; text-align: center;&quot;&gt;Enemy는 Player의 공격으로만&amp;nbsp; Hp감소 가능&amp;nbsp;&lt;br style=&quot;border-color: var(--border-color); font-size: 19px; text-align: center;&quot;&gt;&lt;/font&gt;&lt;/li&gt;&lt;/ul&gt;" style="text;strokeColor=none;fillColor=none;html=1;whiteSpace=wrap;verticalAlign=middle;overflow=hidden;" parent="zks5ml6HuDEgTcpe3jTh-20" vertex="1">
          <mxGeometry y="25" width="400" height="116" as="geometry" />
        </mxCell>
        <mxCell id="zks5ml6HuDEgTcpe3jTh-22" value="" style="endArrow=block;html=1;rounded=0;fontSize=19;edgeStyle=elbowEdgeStyle;elbow=vertical;endFill=1;strokeWidth=2;entryX=0.542;entryY=1;entryDx=0;entryDy=0;entryPerimeter=0;exitX=0.5;exitY=0;exitDx=0;exitDy=0;" parent="zks5ml6HuDEgTcpe3jTh-74" source="zks5ml6HuDEgTcpe3jTh-16" edge="1">
          <mxGeometry width="50" height="50" relative="1" as="geometry">
            <mxPoint x="1017" y="514" as="sourcePoint" />
            <mxPoint x="870" y="460" as="targetPoint" />
            <Array as="points">
              <mxPoint x="947" y="494" />
            </Array>
          </mxGeometry>
        </mxCell>
        <mxCell id="zks5ml6HuDEgTcpe3jTh-23" value="" style="endArrow=block;html=1;rounded=0;fontSize=19;edgeStyle=elbowEdgeStyle;elbow=vertical;endFill=1;strokeWidth=2;entryX=0.542;entryY=1;entryDx=0;entryDy=0;entryPerimeter=0;exitX=0.522;exitY=-0.001;exitDx=0;exitDy=0;exitPerimeter=0;" parent="zks5ml6HuDEgTcpe3jTh-74" source="zks5ml6HuDEgTcpe3jTh-13" edge="1">
          <mxGeometry width="50" height="50" relative="1" as="geometry">
            <mxPoint x="735" y="515" as="sourcePoint" />
            <mxPoint x="870" y="460" as="targetPoint" />
            <Array as="points">
              <mxPoint x="947" y="494" />
            </Array>
          </mxGeometry>
        </mxCell>
        <mxCell id="zks5ml6HuDEgTcpe3jTh-50" value="Character" style="swimlane;whiteSpace=wrap;html=1;" parent="zks5ml6HuDEgTcpe3jTh-74" vertex="1">
          <mxGeometry x="120" y="60" width="370" height="200" as="geometry" />
        </mxCell>
        <mxCell id="zks5ml6HuDEgTcpe3jTh-51" value="" style="endArrow=open;html=1;rounded=0;fontSize=19;elbow=vertical;endFill=0;strokeWidth=2;dashed=1;exitX=1.007;exitY=0.44;exitDx=0;exitDy=0;exitPerimeter=0;" parent="zks5ml6HuDEgTcpe3jTh-74" source="zks5ml6HuDEgTcpe3jTh-54" edge="1">
          <mxGeometry width="50" height="50" relative="1" as="geometry">
            <mxPoint x="420" y="1010" as="sourcePoint" />
            <mxPoint x="618" y="1010" as="targetPoint" />
          </mxGeometry>
        </mxCell>
        <mxCell id="zks5ml6HuDEgTcpe3jTh-52" value="Scrool_Manager" style="swimlane;whiteSpace=wrap;html=1;" parent="zks5ml6HuDEgTcpe3jTh-74" vertex="1">
          <mxGeometry x="620" y="910" width="190" height="200" as="geometry" />
        </mxCell>
        <mxCell id="zks5ml6HuDEgTcpe3jTh-53" value="&lt;ul style=&quot;font-size: 19px;&quot;&gt;&lt;li&gt;화면에 스크롤을 담당&amp;nbsp;&lt;br&gt;&lt;br&gt;&lt;/li&gt;&lt;li&gt;싱글톤으로 구성&lt;/li&gt;&lt;/ul&gt;" style="text;strokeColor=none;fillColor=none;html=1;whiteSpace=wrap;verticalAlign=middle;overflow=hidden;" parent="zks5ml6HuDEgTcpe3jTh-52" vertex="1">
          <mxGeometry y="25" width="190" height="175" as="geometry" />
        </mxCell>
        <mxCell id="zks5ml6HuDEgTcpe3jTh-56" value="Item" style="swimlane;whiteSpace=wrap;html=1;" parent="zks5ml6HuDEgTcpe3jTh-74" vertex="1">
          <mxGeometry x="64" y="1150" width="370" height="200" as="geometry" />
        </mxCell>
        <mxCell id="zks5ml6HuDEgTcpe3jTh-57" value="&lt;ul style=&quot;font-size: 19px;&quot;&gt;&lt;li&gt;Enemy를 처치 후 확률에 따라 아이템을 드랍&lt;/li&gt;&lt;/ul&gt;" style="text;strokeColor=none;fillColor=none;html=1;whiteSpace=wrap;verticalAlign=middle;overflow=hidden;" parent="zks5ml6HuDEgTcpe3jTh-56" vertex="1">
          <mxGeometry y="25" width="370" height="175" as="geometry" />
        </mxCell>
        <mxCell id="zks5ml6HuDEgTcpe3jTh-58" value="" style="endArrow=open;html=1;rounded=0;fontSize=19;elbow=vertical;endFill=0;strokeWidth=2;dashed=1;exitX=1.007;exitY=0.44;exitDx=0;exitDy=0;exitPerimeter=0;entryX=0;entryY=0.75;entryDx=0;entryDy=0;" parent="zks5ml6HuDEgTcpe3jTh-74" source="zks5ml6HuDEgTcpe3jTh-57" target="zks5ml6HuDEgTcpe3jTh-53" edge="1">
          <mxGeometry width="50" height="50" relative="1" as="geometry">
            <mxPoint x="430" y="1250" as="sourcePoint" />
            <mxPoint x="628" y="1250" as="targetPoint" />
          </mxGeometry>
        </mxCell>
        <mxCell id="zks5ml6HuDEgTcpe3jTh-59" value="" style="endArrow=block;html=1;rounded=0;fontSize=19;edgeStyle=elbowEdgeStyle;elbow=vertical;endFill=1;strokeWidth=2;" parent="zks5ml6HuDEgTcpe3jTh-74" edge="1">
          <mxGeometry width="50" height="50" relative="1" as="geometry">
            <mxPoint x="120" y="1410" as="sourcePoint" />
            <mxPoint x="250" y="1350" as="targetPoint" />
          </mxGeometry>
        </mxCell>
        <mxCell id="zks5ml6HuDEgTcpe3jTh-60" value="" style="endArrow=block;html=1;rounded=0;fontSize=19;edgeStyle=elbowEdgeStyle;elbow=vertical;endFill=1;strokeWidth=2;exitX=0.5;exitY=0;exitDx=0;exitDy=0;" parent="zks5ml6HuDEgTcpe3jTh-74" source="zks5ml6HuDEgTcpe3jTh-61" edge="1">
          <mxGeometry width="50" height="50" relative="1" as="geometry">
            <mxPoint x="440" y="1400" as="sourcePoint" />
            <mxPoint x="250" y="1350" as="targetPoint" />
            <Array as="points">
              <mxPoint x="330" y="1380" />
            </Array>
          </mxGeometry>
        </mxCell>
        <mxCell id="zks5ml6HuDEgTcpe3jTh-61" value="BOMB_ITEM" style="swimlane;whiteSpace=wrap;html=1;" parent="zks5ml6HuDEgTcpe3jTh-74" vertex="1">
          <mxGeometry x="340" y="1410" width="190" height="200" as="geometry" />
        </mxCell>
        <mxCell id="zks5ml6HuDEgTcpe3jTh-62" value="&lt;ul style=&quot;&quot;&gt;&lt;li style=&quot;&quot;&gt;&lt;font style=&quot;font-size: 16px;&quot;&gt;플레이어 창에 뜨며 폭탄 아이템 사용시 전체 공&lt;/font&gt;&lt;/li&gt;&lt;/ul&gt;" style="text;strokeColor=none;fillColor=none;html=1;whiteSpace=wrap;verticalAlign=middle;overflow=hidden;" parent="zks5ml6HuDEgTcpe3jTh-61" vertex="1">
          <mxGeometry y="25" width="190" height="116" as="geometry" />
        </mxCell>
        <mxCell id="zks5ml6HuDEgTcpe3jTh-63" value="HEAL_ITEM" style="swimlane;whiteSpace=wrap;html=1;" parent="zks5ml6HuDEgTcpe3jTh-74" vertex="1">
          <mxGeometry x="40" y="1410" width="190" height="200" as="geometry" />
        </mxCell>
        <mxCell id="zks5ml6HuDEgTcpe3jTh-64" value="&lt;ul style=&quot;font-size: 19px;&quot;&gt;&lt;li&gt;HP를 최대체력의 20%를 회복&amp;nbsp;&lt;/li&gt;&lt;/ul&gt;" style="text;strokeColor=none;fillColor=none;html=1;whiteSpace=wrap;verticalAlign=middle;overflow=hidden;" parent="zks5ml6HuDEgTcpe3jTh-63" vertex="1">
          <mxGeometry y="25" width="190" height="116" as="geometry" />
        </mxCell>
        <mxCell id="zks5ml6HuDEgTcpe3jTh-65" value="Object" style="swimlane;whiteSpace=wrap;html=1;" parent="zks5ml6HuDEgTcpe3jTh-74" vertex="1">
          <mxGeometry x="655" y="1200" width="370" height="200" as="geometry" />
        </mxCell>
        <mxCell id="zks5ml6HuDEgTcpe3jTh-66" value="&lt;ul style=&quot;font-size: 19px;&quot;&gt;&lt;li&gt;Game_Scene에서 블럭 오브젝트 생성&lt;/li&gt;&lt;li&gt;(Player 및 몬스터들은 오브젝트를 지나갈수 없고 점프를 이용해서 이동이 가능함)&lt;/li&gt;&lt;/ul&gt;" style="text;strokeColor=none;fillColor=none;html=1;whiteSpace=wrap;verticalAlign=middle;overflow=hidden;" parent="zks5ml6HuDEgTcpe3jTh-65" vertex="1">
          <mxGeometry y="25" width="370" height="175" as="geometry" />
        </mxCell>
        <mxCell id="zks5ml6HuDEgTcpe3jTh-67" value="" style="endArrow=open;html=1;rounded=0;fontSize=19;elbow=vertical;endFill=0;strokeWidth=2;dashed=1;exitX=0.468;exitY=-0.026;exitDx=0;exitDy=0;exitPerimeter=0;entryX=0;entryY=0.75;entryDx=0;entryDy=0;" parent="zks5ml6HuDEgTcpe3jTh-74" source="zks5ml6HuDEgTcpe3jTh-65" edge="1">
          <mxGeometry width="50" height="50" relative="1" as="geometry">
            <mxPoint x="540" y="1296" as="sourcePoint" />
            <mxPoint x="723" y="1110" as="targetPoint" />
          </mxGeometry>
        </mxCell>
        <mxCell id="zks5ml6HuDEgTcpe3jTh-68" value="" style="endArrow=block;html=1;rounded=0;fontSize=19;edgeStyle=elbowEdgeStyle;elbow=vertical;endFill=1;strokeWidth=2;" parent="zks5ml6HuDEgTcpe3jTh-74" edge="1">
          <mxGeometry width="50" height="50" relative="1" as="geometry">
            <mxPoint x="725" y="1460" as="sourcePoint" />
            <mxPoint x="855" y="1400" as="targetPoint" />
          </mxGeometry>
        </mxCell>
        <mxCell id="zks5ml6HuDEgTcpe3jTh-69" value="" style="endArrow=block;html=1;rounded=0;fontSize=19;edgeStyle=elbowEdgeStyle;elbow=vertical;endFill=1;strokeWidth=2;exitX=0.5;exitY=0;exitDx=0;exitDy=0;" parent="zks5ml6HuDEgTcpe3jTh-74" source="zks5ml6HuDEgTcpe3jTh-70" edge="1">
          <mxGeometry width="50" height="50" relative="1" as="geometry">
            <mxPoint x="1045" y="1450" as="sourcePoint" />
            <mxPoint x="855" y="1400" as="targetPoint" />
            <Array as="points">
              <mxPoint x="935" y="1430" />
            </Array>
          </mxGeometry>
        </mxCell>
        <mxCell id="zks5ml6HuDEgTcpe3jTh-70" value="BossRoomDoor" style="swimlane;whiteSpace=wrap;html=1;" parent="zks5ml6HuDEgTcpe3jTh-74" vertex="1">
          <mxGeometry x="945" y="1460" width="190" height="200" as="geometry" />
        </mxCell>
        <mxCell id="zks5ml6HuDEgTcpe3jTh-71" value="&lt;ul style=&quot;&quot;&gt;&lt;li style=&quot;&quot;&gt;&lt;span style=&quot;font-size: 16px;&quot;&gt;보스룸 문에 닿으면 캐릭터가 들어가는 연출 (느리게 이동하는)하는 트리거&lt;/span&gt;&lt;/li&gt;&lt;/ul&gt;" style="text;strokeColor=none;fillColor=none;html=1;whiteSpace=wrap;verticalAlign=middle;overflow=hidden;" parent="zks5ml6HuDEgTcpe3jTh-70" vertex="1">
          <mxGeometry y="25" width="190" height="116" as="geometry" />
        </mxCell>
        <mxCell id="zks5ml6HuDEgTcpe3jTh-72" value="Block" style="swimlane;whiteSpace=wrap;html=1;" parent="zks5ml6HuDEgTcpe3jTh-74" vertex="1">
          <mxGeometry x="645" y="1460" width="190" height="200" as="geometry" />
        </mxCell>
        <mxCell id="zks5ml6HuDEgTcpe3jTh-73" value="&lt;ul style=&quot;font-size: 19px;&quot;&gt;&lt;li&gt;Character 객체가 서있을수 있게하는 객체(발판)&lt;/li&gt;&lt;/ul&gt;" style="text;strokeColor=none;fillColor=none;html=1;whiteSpace=wrap;verticalAlign=middle;overflow=hidden;" parent="zks5ml6HuDEgTcpe3jTh-72" vertex="1">
          <mxGeometry y="25" width="190" height="116" as="geometry" />
        </mxCell>
        <mxCell id="zks5ml6HuDEgTcpe3jTh-79" value="&lt;font style=&quot;font-size: 18px;&quot;&gt;FSM으로 구성 할것&amp;nbsp;&lt;br&gt;Character를 FSM 자체로 구성할 것&lt;br&gt;&lt;/font&gt;" style="text;html=1;strokeColor=none;fillColor=none;align=center;verticalAlign=middle;whiteSpace=wrap;rounded=0;fontSize=14;strokeWidth=6;" parent="zks5ml6HuDEgTcpe3jTh-74" vertex="1">
          <mxGeometry x="504" y="40" width="210" height="80" as="geometry" />
        </mxCell>
        <mxCell id="zks5ml6HuDEgTcpe3jTh-83" value="" style="endArrow=open;html=1;rounded=0;fontSize=19;elbow=vertical;endFill=0;strokeWidth=2;dashed=1;exitX=0.5;exitY=1;exitDx=0;exitDy=0;" parent="zks5ml6HuDEgTcpe3jTh-74" source="zks5ml6HuDEgTcpe3jTh-11" edge="1">
          <mxGeometry width="50" height="50" relative="1" as="geometry">
            <mxPoint x="170" y="510" as="sourcePoint" />
            <mxPoint x="-270" y="1010" as="targetPoint" />
          </mxGeometry>
        </mxCell>
        <mxCell id="wN6ERazzjMdS7Z8mdTFz-3" value="&lt;font style=&quot;font-size: 40px;&quot;&gt;Scene 안에 클래스 전부 동적으로 짤것&amp;nbsp;&lt;br&gt;주의: 릴리즈 반드시 체크할것&lt;/font&gt;" style="text;html=1;strokeColor=none;fillColor=none;align=center;verticalAlign=middle;whiteSpace=wrap;rounded=0;" vertex="1" parent="zks5ml6HuDEgTcpe3jTh-74">
          <mxGeometry x="860" y="835" width="720" height="350" as="geometry" />
        </mxCell>
        <mxCell id="zks5ml6HuDEgTcpe3jTh-24" value="Title_Scene" style="swimlane;whiteSpace=wrap;html=1;" parent="1" vertex="1">
          <mxGeometry x="-710" y="80" width="370" height="200" as="geometry" />
        </mxCell>
        <mxCell id="zks5ml6HuDEgTcpe3jTh-25" value="&lt;ul style=&quot;font-size: 19px;&quot;&gt;&lt;li&gt;게임 인트로 씬&lt;br&gt;&lt;/li&gt;&lt;li&gt;게임 시작, 게임 종료 버튼 구성&lt;/li&gt;&lt;/ul&gt;" style="text;strokeColor=none;fillColor=none;html=1;whiteSpace=wrap;verticalAlign=middle;overflow=hidden;" parent="1" vertex="1">
          <mxGeometry x="-710" y="104" width="370" height="176" as="geometry" />
        </mxCell>
        <mxCell id="zks5ml6HuDEgTcpe3jTh-38" value="Stage1_Scene" style="swimlane;whiteSpace=wrap;html=1;" parent="1" vertex="1">
          <mxGeometry x="-710" y="330" width="370" height="200" as="geometry" />
        </mxCell>
        <mxCell id="zks5ml6HuDEgTcpe3jTh-39" value="&lt;ul style=&quot;font-size: 19px;&quot;&gt;&lt;li&gt;실제 게임을 플레이 하는 화면&lt;/li&gt;&lt;li&gt;필요 Class : Player,Enemy,BackGround,Scrool 등등 (추가예정)&lt;/li&gt;&lt;li&gt;게임 오버(생명=0)인경우, 이 씬에서&amp;nbsp;&lt;/li&gt;&lt;li&gt;게임오버 연출 후 타이틀 전환&amp;nbsp;&lt;/li&gt;&lt;/ul&gt;" style="text;strokeColor=none;fillColor=none;html=1;whiteSpace=wrap;verticalAlign=middle;overflow=hidden;" parent="1" vertex="1">
          <mxGeometry x="-710" y="354" width="370" height="176" as="geometry" />
        </mxCell>
        <mxCell id="zks5ml6HuDEgTcpe3jTh-40" value="Result_Scene" style="swimlane;whiteSpace=wrap;html=1;" parent="1" vertex="1">
          <mxGeometry x="-710" y="580" width="370" height="200" as="geometry" />
        </mxCell>
        <mxCell id="zks5ml6HuDEgTcpe3jTh-41" value="&lt;ul style=&quot;font-size: 19px;&quot;&gt;&lt;li&gt;게임 클리어시 , 추가 스토리 스크립트 처럼 연출(베네치아 게임 스크립트)&lt;/li&gt;&lt;/ul&gt;" style="text;strokeColor=none;fillColor=none;html=1;whiteSpace=wrap;verticalAlign=middle;overflow=hidden;" parent="1" vertex="1">
          <mxGeometry x="-710" y="604" width="370" height="176" as="geometry" />
        </mxCell>
        <mxCell id="zks5ml6HuDEgTcpe3jTh-42" value="" style="curved=1;endArrow=classic;html=1;rounded=0;strokeWidth=2;fontSize=13;elbow=vertical;edgeStyle=orthogonalEdgeStyle;" parent="1" edge="1">
          <mxGeometry width="50" height="50" relative="1" as="geometry">
            <mxPoint x="-330" y="150.0311764705883" as="sourcePoint" />
            <mxPoint x="-330" y="420" as="targetPoint" />
            <Array as="points">
              <mxPoint x="-240" y="150" />
              <mxPoint x="-240" y="420" />
              <mxPoint x="-330" y="420" />
            </Array>
          </mxGeometry>
        </mxCell>
        <mxCell id="zks5ml6HuDEgTcpe3jTh-43" value="" style="curved=1;endArrow=classic;html=1;rounded=0;strokeWidth=2;fontSize=13;elbow=vertical;edgeStyle=orthogonalEdgeStyle;" parent="1" edge="1">
          <mxGeometry width="50" height="50" relative="1" as="geometry">
            <mxPoint x="-737" y="449.99882352941137" as="sourcePoint" />
            <mxPoint x="-737" y="180.0299999999997" as="targetPoint" />
            <Array as="points">
              <mxPoint x="-827" y="450.0299999999997" />
              <mxPoint x="-827" y="180.0299999999997" />
              <mxPoint x="-737" y="180.0299999999997" />
            </Array>
          </mxGeometry>
        </mxCell>
        <mxCell id="zks5ml6HuDEgTcpe3jTh-44" value="" style="curved=1;endArrow=classic;html=1;rounded=0;strokeWidth=2;fontSize=13;elbow=vertical;edgeStyle=orthogonalEdgeStyle;" parent="1" edge="1">
          <mxGeometry width="50" height="50" relative="1" as="geometry">
            <mxPoint x="-720" y="700" as="sourcePoint" />
            <mxPoint x="-720" y="140" as="targetPoint" />
            <Array as="points">
              <mxPoint x="-900" y="700" />
              <mxPoint x="-900" y="140" />
            </Array>
          </mxGeometry>
        </mxCell>
        <mxCell id="zks5ml6HuDEgTcpe3jTh-45" value="Game_Over" style="text;html=1;strokeColor=none;fillColor=none;align=center;verticalAlign=middle;whiteSpace=wrap;rounded=0;fontSize=13;" parent="1" vertex="1">
          <mxGeometry x="-860" y="290" width="150" height="30" as="geometry" />
        </mxCell>
        <mxCell id="zks5ml6HuDEgTcpe3jTh-46" value="Game_Start" style="text;html=1;strokeColor=none;fillColor=none;align=center;verticalAlign=middle;whiteSpace=wrap;rounded=0;fontSize=13;" parent="1" vertex="1">
          <mxGeometry x="-270" y="250" width="150" height="30" as="geometry" />
        </mxCell>
        <mxCell id="zks5ml6HuDEgTcpe3jTh-47" value="Game_Clear" style="text;html=1;strokeColor=none;fillColor=none;align=center;verticalAlign=middle;whiteSpace=wrap;rounded=0;fontSize=13;" parent="1" vertex="1">
          <mxGeometry x="-1020" y="400" width="150" height="30" as="geometry" />
        </mxCell>
        <mxCell id="zks5ml6HuDEgTcpe3jTh-48" value="" style="curved=1;endArrow=classic;html=1;rounded=0;strokeWidth=2;fontSize=13;elbow=vertical;edgeStyle=orthogonalEdgeStyle;" parent="1" edge="1">
          <mxGeometry width="50" height="50" relative="1" as="geometry">
            <mxPoint x="-330" y="500" as="sourcePoint" />
            <mxPoint x="-320" y="739.97" as="targetPoint" />
            <Array as="points">
              <mxPoint x="-230" y="500" />
              <mxPoint x="-230" y="740" />
            </Array>
          </mxGeometry>
        </mxCell>
        <mxCell id="zks5ml6HuDEgTcpe3jTh-49" value="Game_Clear" style="text;html=1;strokeColor=none;fillColor=none;align=center;verticalAlign=middle;whiteSpace=wrap;rounded=0;fontSize=13;" parent="1" vertex="1">
          <mxGeometry x="-250" y="569" width="150" height="30" as="geometry" />
        </mxCell>
        <mxCell id="zks5ml6HuDEgTcpe3jTh-76" value="" style="shape=flexArrow;endArrow=classic;html=1;rounded=0;strokeWidth=2;fontSize=14;elbow=vertical;" parent="1" edge="1">
          <mxGeometry width="50" height="50" relative="1" as="geometry">
            <mxPoint x="-320" y="460" as="sourcePoint" />
            <mxPoint x="-110" y="460" as="targetPoint" />
          </mxGeometry>
        </mxCell>
        <mxCell id="zks5ml6HuDEgTcpe3jTh-77" value="Game_Scene의 클래스 구성" style="text;html=1;strokeColor=none;fillColor=none;align=center;verticalAlign=middle;whiteSpace=wrap;rounded=0;fontSize=13;" parent="1" vertex="1">
          <mxGeometry x="-310" y="420" width="180" height="30" as="geometry" />
        </mxCell>
        <mxCell id="zks5ml6HuDEgTcpe3jTh-84" value="InputComponent" style="swimlane;whiteSpace=wrap;html=1;" parent="1" vertex="1">
          <mxGeometry x="-560" y="1070" width="370" height="200" as="geometry" />
        </mxCell>
        <mxCell id="zks5ml6HuDEgTcpe3jTh-85" value="&lt;ul style=&quot;font-size: 19px;&quot;&gt;&lt;li&gt;InputComponent 구성&lt;/li&gt;&lt;/ul&gt;" style="text;strokeColor=none;fillColor=none;html=1;whiteSpace=wrap;verticalAlign=middle;overflow=hidden;" parent="zks5ml6HuDEgTcpe3jTh-84" vertex="1">
          <mxGeometry y="25" width="370" height="175" as="geometry" />
        </mxCell>
        <mxCell id="gYmJ-aHG4ooCd4ZqxHvu-2" value="&lt;h1 style=&quot;font-size: 33px;&quot;&gt;&lt;font style=&quot;font-size: 33px;&quot;&gt;코딩 우선 순위&lt;/font&gt;&lt;/h1&gt;&lt;p style=&quot;font-size: 33px;&quot;&gt;1.Game_Scene 클래스구성&lt;br&gt;1-1.ScroolMgr 클래스 구성&lt;br&gt;1-2.BackGround 클래스 구성&lt;br&gt;1-3.앞뒤로 움직이는 Test용 멤버함수 구현&amp;nbsp;&lt;br&gt;1-4.Scrool구현 확인 후 작업&lt;/p&gt;" style="text;html=1;strokeColor=none;fillColor=none;spacing=5;spacingTop=-20;whiteSpace=wrap;overflow=hidden;rounded=0;" parent="1" vertex="1">
          <mxGeometry x="-1640" y="30" width="680" height="310" as="geometry" />
        </mxCell>
        <mxCell id="wN6ERazzjMdS7Z8mdTFz-1" value="BackGround" style="swimlane;whiteSpace=wrap;html=1;" vertex="1" parent="1">
          <mxGeometry x="-650" y="1430" width="370" height="410" as="geometry" />
        </mxCell>
        <mxCell id="wN6ERazzjMdS7Z8mdTFz-2" value="&lt;ul style=&quot;font-size: 19px;&quot;&gt;&lt;li&gt;Game_Scene에서 배경을 담당&lt;/li&gt;&lt;li&gt;화면은 일정 지점을 넘어가게되면&amp;nbsp; 다시 그리게 구성(서커스 찰리 배경화면 참고)&lt;/li&gt;&lt;li&gt;bitmap* : 변수,리소스 저장(배열로 관리)&lt;/li&gt;&lt;li&gt;Update :함수&lt;/li&gt;&lt;li&gt;Draw :함&lt;/li&gt;&lt;/ul&gt;" style="text;strokeColor=none;fillColor=none;html=1;whiteSpace=wrap;verticalAlign=middle;overflow=hidden;" vertex="1" parent="wN6ERazzjMdS7Z8mdTFz-1">
          <mxGeometry y="25" width="370" height="385" as="geometry" />
        </mxCell>
      </root>
    </mxGraphModel>
  </diagram>
</mxfile>
